<?xml version="1.0" encoding="UTF-8" standalone="no"?>
<!-- Created with Inkscape (http://www.inkscape.org/) -->

<svg
   xmlns:dc="http://purl.org/dc/elements/1.1/"
   xmlns:cc="http://creativecommons.org/ns#"
   xmlns:rdf="http://www.w3.org/1999/02/22-rdf-syntax-ns#"
   xmlns:svg="http://www.w3.org/2000/svg"
   xmlns="http://www.w3.org/2000/svg"
   xmlns:sodipodi="http://sodipodi.sourceforge.net/DTD/sodipodi-0.dtd"
   xmlns:inkscape="http://www.inkscape.org/namespaces/inkscape"
   width="640px"
   height="480px"
   id="svg3965"
   version="1.1"
   inkscape:version="0.48.4 r9939"
   sodipodi:docname="logo_square.svg">
  <defs
     id="defs3967" />
  <sodipodi:namedview
     id="base"
     pagecolor="#ffffff"
     bordercolor="#666666"
     borderopacity="1.0"
     inkscape:pageopacity="0.0"
     inkscape:pageshadow="2"
     inkscape:zoom="0.77472527"
     inkscape:cx="156.07092"
     inkscape:cy="240"
     inkscape:current-layer="layer1"
     inkscape:document-units="px"
     showgrid="false"
     inkscape:window-width="1280"
     inkscape:window-height="739"
     inkscape:window-x="0"
     inkscape:window-y="27"
     inkscape:window-maximized="1" />
  <metadata
     id="metadata3970">
    <rdf:RDF>
      <cc:Work
         rdf:about="">
        <dc:format>image/svg+xml</dc:format>
        <dc:type
           rdf:resource="http://purl.org/dc/dcmitype/StillImage" />
        <dc:title></dc:title>
      </cc:Work>
    </rdf:RDF>
  </metadata>
  <g
     id="layer1"
     inkscape:label="Layer 1"
     inkscape:groupmode="layer">
    <path
       style="fill:#00aced;fill-opacity:0.94117647;stroke:none"
       d="m 300.03357,471.81329 c -24.84654,-3.37303 -48.91571,-12.96577 -70.72767,-28.18824 -9.48029,-6.61626 -27.50057,-23.46206 -34.93986,-32.66267 -3.52012,-4.3535 -8.84668,-11.81182 -11.83678,-16.57405 -5.54492,-8.83111 -12.33431,-23.42133 -11.33804,-24.36509 0.30329,-0.28729 5.88505,0.0391 12.4039,0.72546 9.95947,1.04849 14.21277,0.96263 26.63092,-0.5377 31.8571,-3.84891 39.92541,-7.15795 24.61174,-10.09397 -12.43178,-2.38351 -21.91918,-5.54869 -34.84298,-11.62429 -43.42322,-20.41364 -77.3421,-62.69047 -86.44155,-107.74171 -1.7609,-8.71818 -3.50544,-28.49358 -2.51364,-28.49358 0.34074,0 3.67521,1.43616 7.40994,3.19147 14.90339,7.0045 36.03855,12.03209 56.81975,13.51616 13.20843,0.94326 13.62193,-0.26744 2.39621,-7.01578 -9.73087,-5.84973 -25.40264,-21.10891 -33.78199,-32.89261 -21.36255,-30.04175 -32.5111,-70.97892 -28.82942,-105.860755 2.07037,-19.615399 7.78021,-39.396566 15.58123,-53.979496 l 2.81439,-5.261124 26.45172,25.023632 c 46.64581,44.127503 94.70739,76.630003 144.11093,97.457613 17.56402,7.40463 15.41329,7.17429 26.21577,2.80793 5.27646,-2.13273 17.01121,-7.52881 26.07721,-11.99128 50.9535,-25.08029 99.38303,-60.764105 140.93866,-103.846288 l 9.95464,-10.32031 4.11512,8.705031 c 24.27824,51.357791 18.85328,109.500737 -14.69847,157.533667 -8.12573,11.63284 -26.05616,28.92983 -34.87865,33.6464 -9.97519,5.33286 -8.92276,6.91525 3.98613,5.99337 20.85734,-1.48951 41.91101,-6.53909 56.84022,-13.63274 l 6.53664,-3.10589 0.10533,4.59218 c 0.30786,13.41071 -0.95358,22.07845 -5.36495,36.86435 -3.05048,10.22443 -11.70872,28.60831 -17.74372,37.67486 -23.15179,34.78161 -60.84732,61.07562 -98.06644,68.40483 -10.22064,2.01265 -10.79963,2.20558 -10.79963,3.59879 0,1.72813 19.52857,5.5834 37.21692,7.34722 9.84454,0.98167 15.29347,0.98083 23.75014,-0.004 6.036,-0.70266 11.23694,-1.02901 11.55767,-0.72522 0.90652,0.85877 -5.09939,13.54937 -10.95732,23.15303 -8.44601,13.84669 -14.60022,21.27768 -28.57895,34.50808 -23.65126,22.38525 -50.2571,36.59118 -79.78203,42.59902 -9.72289,1.97841 -40.3717,2.93499 -50.40317,1.57328 l 4e-5,-4.5e-4 z"
       id="path3953"
       inkscape:connector-curvature="0" />
    <path
       inkscape:connector-curvature="0"
       id="path3955"
       d="m 307.64661,348.46199 c -6.78237,-45.65268 -12.40123,-83.07448 -12.48633,-83.15958 -0.0851,-0.0851 -26.78188,11.35163 -59.32617,25.41498 -32.54432,14.06331 -59.26608,25.47505 -59.38174,25.35941 -0.11569,-0.11568 21.60151,-22.59592 48.26031,-49.95617 26.65884,-27.36026 48.47057,-49.94659 48.47057,-50.19188 0,-0.24533 -21.80984,-22.82898 -48.46631,-50.18598 -26.65651,-27.35704 -48.36854,-49.83786 -48.24897,-49.95743 0.11951,-0.11953 26.84154,11.292 59.38217,25.35898 32.54065,14.06698 59.23137,25.50976 59.3128,25.42835 0.0813,-0.0813 5.69782,-37.50202 12.48094,-83.156948 6.78316,-45.654889 12.39817,-82.77456835 12.47787,-82.48815935 0.0797,0.28643145 5.64417,37.64415035 12.3655,83.01715435 6.72133,45.372983 12.2804,82.562363 12.35349,82.643093 0.0731,0.0808 26.76036,-11.35925 59.3051,-25.42212 32.54479,-14.06287 59.27177,-25.4694 59.39332,-25.34786 0.12153,0.12155 -21.59697,22.6131 -48.26339,49.98114 -26.66645,27.36805 -48.48442,49.92717 -48.48442,50.13131 0,0.20437 21.82023,22.76486 48.4894,50.13491 26.66916,27.37002 48.38927,49.86386 48.26682,49.98627 -0.12244,0.12244 -26.84836,-11.28514 -59.39103,-25.35012 -32.54263,-14.06495 -59.23151,-25.50337 -59.30856,-25.41867 -0.077,0.0849 -5.6394,37.27736 -12.36073,82.65035 -6.72133,45.37298 -12.28552,82.72975 -12.36483,83.01493 -0.0792,0.28539 -5.69342,-36.8333 -12.47581,-82.48596 l 0,0 z"
       style="fill:#800080;fill-opacity:1;stroke:none" />
  </g>
</svg>
